# xmcd
#
# Track frame offsets: 
#        150
#        13570
#        32152
#        47427
#        61147
#        79832
#        95502
#        110077
#        122932
#        135740
#        154765
#        170075
#        186150
#        199277
#
# Disc length: 2878 seconds
#
# Revision: 0
# Processed by: cddbd v1.4PL0 Copyright (c) Steve Scherf et al.
# Submitted via: ExactAudioCopy v0.90b4
#
DISCID=c10b3c0e
DTITLE=Various Artist - Volume 1
DYEAR=1996
DGENRE=
TTITLE0=One more last chance
TTITLE1=Neon Moon
TTITLE2=Achy breaky heart
TTITLE3=Boot scootin' boogie
TTITLE4=Any man of mine
TTITLE5=Fast as you
TTITLE6=Summertime blues
TTITLE7=A little less talk and a lot more...
TTITLE8=If Bubba can dance
TTITLE9=Earthquake
TTITLE10=Wild wild west
TTITLE11=Baby likes to rock it
TTITLE12=Indian outlaw
TTITLE13=Ain't goin' down
EXTD=
EXTT0=
EXTT1=
EXTT2=
EXTT3=
EXTT4=
EXTT5=
EXTT6=
EXTT7=
EXTT8=
EXTT9=
EXTT10=
EXTT11=
EXTT12=
EXTT13=
PLAYORDER=
